<svg xmlns="http://www.w3.org/2000/svg" viewBox="0 0 256 256">
  <defs>
    <linearGradient id="grad1" x1="0%" y1="0%" x2="100%" y2="100%">
      <stop offset="0%" style="stop-color:#9333ea;stop-opacity:1" />
      <stop offset="50%" style="stop-color:#c026d3;stop-opacity:1" />
      <stop offset="100%" style="stop-color:#f97316;stop-opacity:1" />
    </linearGradient>
  </defs>
  <rect width="256" height="256" fill="#1a1a2e"/>
  <path d="M128 40 L134 52 L148 54 L138 64 L140 78 L128 71 L116 78 L118 64 L108 54 L122 52 Z" fill="#fbbf24"/>
  <path d="M200 80 L204 88 L213 89 L206 96 L208 105 L200 100 L192 105 L194 96 L187 89 L196 88 Z" fill="#fbbf24"/>
  <path d="M56 100 L60 108 L69 109 L62 116 L64 125 L56 120 L48 125 L50 116 L43 109 L52 108 Z" fill="#fbbf24"/>
  <path d="M210 180 L214 188 L223 189 L216 196 L218 205 L210 200 L202 205 L204 196 L197 189 L206 188 Z" fill="#fbbf24"/>
  <path d="M50 190 L54 198 L63 199 L56 206 L58 215 L50 210 L42 215 L44 206 L37 199 L46 198 Z" fill="#fbbf24"/>
  <circle cx="180" cy="140" r="3" fill="#fde047"/>
  <circle cx="70" cy="160" r="3" fill="#fde047"/>
  <circle cx="220" cy="120" r="2.5" fill="#fde047"/>
  <circle cx="40" cy="70" r="2.5" fill="#fde047"/>
  <path d="M160 70 Q140 65 120 70 Q100 75 90 90 Q85 100 90 110 Q95 120 110 125 L140 135 Q150 140 155 150 Q158 158 155 165 Q150 175 135 180 Q120 185 100 180 L100 205 Q125 212 150 205 Q170 200 182 185 Q192 170 190 150 Q188 135 170 125 L140 112 Q128 107 125 98 Q123 92 126 86 Q132 78 145 75 Q158 72 175 78 L175 55 Q168 52 160 70 Z" fill="url(#grad1)" stroke="#fff" stroke-width="3"/>
</svg>